<svg width="126" height="154" viewBox="0 0 126 154" fill="none" xmlns="http://www.w3.org/2000/svg">
<path fill-rule="evenodd" clip-rule="evenodd" d="M64.0175 0.00173603H118.897C120.097 0.0567978 121.252 0.469615 122.207 1.18516C123.162 1.90071 123.872 2.88499 124.243 4.00681C124.613 5.12863 124.627 6.33469 124.281 7.46422C123.936 8.59376 123.248 9.59312 122.309 10.3291L37.8597 92.1092C37.4173 92.7029 36.8584 93.2038 36.2159 93.5824C35.5733 93.961 34.8602 94.2096 34.1183 94.3136C33.3765 94.4176 32.6209 94.3749 31.8961 94.1881C31.1713 94.0013 30.4919 93.674 29.8979 93.2256L1.46137 66.1517C0.92947 65.5592 0.527754 64.8654 0.28131 64.1136C0.0348653 63.3619 -0.0510119 62.5683 0.0290429 61.7825C0.109098 60.9967 0.353364 60.2356 0.746584 59.5466C1.1398 58.8576 1.67353 58.2557 2.31442 57.7783L60.6049 1.3974C61.0408 0.941071 61.5704 0.580716 62.1586 0.340132C62.7469 0.0995476 63.3805 -0.0157897 64.0175 0.00173603ZM61.9825 153.998H7.10388C5.90368 153.943 4.74905 153.531 3.79392 152.815C2.83879 152.1 2.12855 151.115 1.7579 149.993C1.38724 148.872 1.37378 147.665 1.7193 146.536C2.06483 145.406 2.75292 144.407 3.69185 143.671L88.1424 61.8908C88.5847 61.2971 89.1436 60.7962 89.7861 60.4176C90.4286 60.0391 91.1418 59.7905 91.8836 59.6864C92.6254 59.5824 93.3809 59.6251 94.1057 59.8119C94.8305 59.9988 95.5099 60.326 96.1039 60.7744L124.538 87.8483C125.07 88.4408 125.472 89.1346 125.719 89.8863C125.965 90.6381 126.051 91.4317 125.971 92.2175C125.891 93.0033 125.647 93.7644 125.253 94.4534C124.86 95.1424 124.327 95.7443 123.686 96.2217L65.3951 152.603C64.9592 153.059 64.4297 153.419 63.8414 153.66C63.2531 153.9 62.6196 154.016 61.9825 153.998Z" fill="url(#paint0_linear_1_12)" fill-opacity="0.2"/>
<defs>
<linearGradient id="paint0_linear_1_12" x1="0" y1="77" x2="126" y2="77" gradientUnits="userSpaceOnUse">
<stop stop-color="#FF9F19"/>
<stop offset="1" stop-color="#EF6731"/>
</linearGradient>
</defs>
</svg>
