<svg width="20" height="20" viewBox="0 0 20 20" fill="none" xmlns="http://www.w3.org/2000/svg">
<path d="M19.7007 12.4191C18.3649 17.7763 12.9384 21.0365 7.58002 19.7006C2.22383 18.365 -1.03683 12.9388 0.299545 7.58199C1.63468 2.22424 7.0612 -1.03636 12.418 0.299241C17.7761 1.63487 21.0364 7.06168 19.7007 12.4191Z" fill="#F7931A"/>
<path d="M6.71016 11.684C6.65578 11.8191 6.51796 12.0215 6.20729 11.9447C6.21825 11.9606 5.40972 11.7456 5.40972 11.7456L4.86499 13.0015L6.29293 13.3575C6.55859 13.424 6.81894 13.4937 7.07521 13.5593L6.62108 15.3825L7.71714 15.6559L8.16688 13.8521C8.45754 13.9309 8.74905 14.0065 9.04134 14.079L8.59316 15.8743L9.69049 16.1477L10.1446 14.3281C12.0157 14.6821 13.4227 14.5393 14.015 12.8471C14.4922 11.4847 13.9913 10.6987 13.0068 10.1862C13.7237 10.0209 14.2638 9.54937 14.4078 8.57531C14.6069 7.2447 13.5937 6.5294 12.2082 6.05221L12.6577 4.24971L11.5603 3.97627L11.1228 5.73125C10.8343 5.65938 10.538 5.59156 10.2437 5.52437L10.6843 3.75781L9.58763 3.48438L9.1379 5.28623C8.89911 5.23186 8.66473 5.17808 8.43719 5.12154L8.43843 5.1159L6.92514 4.7381L6.63322 5.90996C6.63322 5.90996 7.44738 6.09653 7.43018 6.10808C7.87462 6.21902 7.95493 6.51306 7.94151 6.74621L6.71016 11.684ZM11.9007 12.0906C11.5616 13.4531 9.26731 12.7165 8.52347 12.5318L9.12605 10.1166C9.86986 10.3022 12.2551 10.6697 11.9007 12.0906ZM12.2401 8.55564C11.9307 9.79501 10.0211 9.16533 9.40169 9.01095L9.948 6.82033C10.5674 6.97471 12.5623 7.26283 12.2401 8.55564Z" fill="white"/>
</svg>
