<svg width="20" height="20" viewBox="0 0 20 20" fill="none" xmlns="http://www.w3.org/2000/svg">
<path d="M10 0C4.45455 0 0 4.45455 0 10C0 15.5455 4.45455 20 10 20C15.5455 20 20 15.5455 20 10C20 4.45455 15.5455 0 10 0ZM7.45455 6L8.45455 5L10 3.45455L11.5455 5L12.5455 6L14 7.45455L12.4545 9L11 7.54545L10 6.54545L9 7.54545L7.54545 9L6 7.45455L7.45455 6ZM11.4545 10L10 11.4545L8.54545 10L10 8.54545L11.4545 10ZM3.45455 10L5 8.45455L6.54545 10L5 11.5455L3.45455 10ZM10 16.5455L8.45455 15L7.45455 14L6 12.5455L7.54545 11L9 12.4545L10 13.4545L11 12.4545L12.4545 11L14 12.5455L10 16.5455ZM15 11.5455L13.4545 10L15 8.45455L16.5455 10L15 11.5455Z" fill="#F0B90B"/>
</svg>
