<svg width="20" height="20" viewBox="0 0 20 20" fill="none" xmlns="http://www.w3.org/2000/svg">
<path d="M10 20C15.5228 20 20 15.5228 20 10C20 4.47715 15.5228 0 10 0C4.47715 0 0 4.47715 0 10C0 15.5228 4.47715 20 10 20Z" fill="#59AF99"/>
<path d="M11.038 8.7691V7.5881H13.725V5.7251H6.26799V7.5881H8.96199V8.7691C6.70499 8.8781 5.01099 9.3311 5.01099 9.8691C5.01099 10.4071 6.70299 10.8621 8.96199 10.9691V14.8691H11.038V10.9691C13.295 10.8611 14.989 10.4081 14.989 9.8691C14.989 9.3301 13.3 8.8781 11.038 8.7691ZM9.99999 10.6251C7.55599 10.6251 5.57499 10.2471 5.57499 9.7921C5.57499 9.4011 7.01799 9.0721 8.95999 8.9841V10.3181C9.29399 10.3331 9.64099 10.3421 9.99799 10.3421C10.355 10.3421 10.704 10.3331 11.036 10.3181V8.9841C12.978 9.0721 14.421 9.4011 14.421 9.7921C14.425 10.2521 12.444 10.6251 9.99999 10.6251Z" fill="white"/>
</svg>
