<svg width="24" height="14" viewBox="0 0 24 14" fill="none" xmlns="http://www.w3.org/2000/svg">
<path fill-rule="evenodd" clip-rule="evenodd" d="M17.1094 0.139353C19.1902 0.615261 19.9861 1.81459 20.9841 3.46535H17.1094V0.139353ZM4.94897 3.60396C5.35641 3.60396 5.65209 3.79779 5.65209 4.25082C5.65209 4.63294 5.33845 4.94283 4.95098 4.94389H0.703125C0.314766 4.94389 0 5.25434 0 5.63696C0 6.01977 0.314766 6.33003 0.703125 6.33003H7.03125C7.42327 6.33003 7.73714 6.64007 7.73714 7.0231C7.73714 7.40591 7.42238 7.71617 7.03402 7.71617H0.703125C0.314766 7.71617 0 8.02644 0 8.40924C0 8.79205 0.314766 9.10231 0.703125 9.10231H2.25V11.1815C2.25 11.5643 2.56477 11.8746 2.95312 11.8746H4.3665C4.61845 13.0979 5.71509 14 7.00781 14C8.30053 14 9.39717 13.0979 9.64913 11.8746H16.7884C17.0403 13.0979 18.137 14 19.4297 14C20.7224 14 21.819 13.0979 22.071 11.8746H23.2969C23.6852 11.8746 24 11.5643 24 11.1815V7.0231C24 4.98954 21.824 4.85453 21.822 4.85148H16.4062C16.0179 4.85148 15.7031 4.54122 15.7031 4.15842V0H2.95312C2.56477 0 2.25 0.310264 2.25 0.693069V2.21782H1.40625C1.01789 2.21782 0.703125 2.52809 0.703125 2.91089C0.703125 3.2937 1.01789 3.60396 1.40625 3.60396H4.94897ZM20.3412 10.4448C20.8446 10.9409 20.8446 11.7457 20.3412 12.2419C19.5315 13.04 18.1406 12.4722 18.1406 11.3432C18.1406 10.2145 19.5315 9.64665 20.3412 10.4448ZM7.9193 10.4448C8.42269 10.9409 8.42269 11.7457 7.9193 12.2419C7.10963 13.04 5.71875 12.4722 5.71875 11.3432C5.71875 10.2145 7.10963 9.64665 7.9193 10.4448Z" fill="url(#paint0_radial_1_42)"/>
<defs>
<radialGradient id="paint0_radial_1_42" cx="0" cy="0" r="1" gradientUnits="userSpaceOnUse" gradientTransform="translate(12 7) rotate(90) scale(8.37879 14.3636)">
<stop stop-color="#EF6731"/>
<stop offset="1" stop-color="#FF9F19"/>
</radialGradient>
</defs>
</svg>
