<svg width="20" height="20" viewBox="0 0 20 20" fill="none" xmlns="http://www.w3.org/2000/svg">
<path d="M7.99146 9.69199L10 10.6391L12.0086 9.69199L10 6.37842L7.99146 9.69199Z" fill="white"/>
<path d="M10 0C8.02219 0 6.08879 0.58649 4.4443 1.6853C2.79981 2.78412 1.51809 4.3459 0.761209 6.17317C0.00433283 8.00043 -0.1937 10.0111 0.192152 11.9509C0.578004 13.8907 1.53041 15.6725 2.92894 17.0711C4.32746 18.4696 6.10929 19.422 8.0491 19.8079C9.98891 20.1937 11.9996 19.9957 13.8268 19.2388C15.6541 18.4819 17.2159 17.2002 18.3147 15.5557C19.4135 13.9112 20 11.9778 20 10C20 7.34784 18.9464 4.8043 17.0711 2.92893C15.1957 1.05357 12.6522 0 10 0ZM13.6414 10.37L10.6107 15.37C10.547 15.475 10.4574 15.5617 10.3504 15.622C10.2435 15.6822 10.1228 15.7138 10 15.7138C9.87724 15.7138 9.75655 15.6822 9.64958 15.622C9.5426 15.5617 9.45296 15.475 9.38929 15.37L6.35857 10.37C6.29115 10.2584 6.25552 10.1304 6.25552 10C6.25552 9.86958 6.29115 9.74164 6.35857 9.63L9.38929 4.63C9.45296 4.52504 9.5426 4.43826 9.64958 4.37803C9.75655 4.3178 9.87724 4.28616 10 4.28616C10.1228 4.28616 10.2435 4.3178 10.3504 4.37803C10.4574 4.43826 10.547 4.52504 10.6107 4.63L13.6414 9.63C13.7089 9.74164 13.7445 9.86958 13.7445 10C13.7445 10.1304 13.7089 10.2584 13.6414 10.37Z" fill="white"/>
</svg>
