<svg width="24" height="26" viewBox="0 0 24 26" fill="none" xmlns="http://www.w3.org/2000/svg">
<path d="M23.9735 6.43101V6.37605C23.947 6.32108 23.947 6.26612 23.9205 6.21115V6.18367C23.894 6.1287 23.8411 6.07374 23.8146 6.04625L23.7881 6.01877C23.7616 5.99129 23.7086 5.9638 23.6821 5.93632L23.6556 5.90884H23.6291L23.6026 5.88136L12.3444 0.0824489C12.1325 -0.027483 11.8675 -0.027483 11.6291 0.0824489L7.84106 2.03374L19.1523 8.05251L19.1788 8.07999C19.2053 8.07999 19.2053 8.10748 19.2318 8.10748C19.2583 8.13496 19.2583 8.16244 19.2848 8.18992V14.6484C19.2848 14.7584 19.2318 14.8408 19.1523 14.8958L16.8742 16.1325C16.7417 16.215 16.5828 16.16 16.5033 16.0226C16.4768 15.9951 16.4768 15.9401 16.4768 15.8852V9.64652L5.03311 3.51782L5.00662 3.49034L0.423841 5.85387L0.397351 5.88136H0.370861L0.344371 5.90884C0.317881 5.93632 0.264901 5.9638 0.238411 5.99129L0.211921 6.01877C0.15894 6.07374 0.13245 6.1287 0.0794702 6.18367V6.21115C0.0529801 6.26612 0.0264901 6.32108 0.0264901 6.37605V6.43101C0.0264901 6.48598 0 6.51346 0 6.56843V19.403C0 19.7053 0.15894 20.0076 0.450331 20.145L11.6026 25.9164C11.7616 25.9989 11.947 26.0264 12.1325 25.9714L12.1854 25.9439C12.2384 25.9439 12.2649 25.9164 12.3179 25.889L23.5497 20.1175C23.8146 19.9801 24 19.7053 24 19.3755V6.56843C23.9735 6.51346 23.9735 6.48598 23.9735 6.43101Z" fill="url(#paint0_radial_1_48)"/>
<defs>
<radialGradient id="paint0_radial_1_48" cx="0" cy="0" r="1" gradientUnits="userSpaceOnUse" gradientTransform="translate(12 13) rotate(90) scale(15.5606 14.3636)">
<stop stop-color="#EF6731"/>
<stop offset="1" stop-color="#FF9F19"/>
</radialGradient>
</defs>
</svg>
