<svg width="20" height="20" viewBox="0 0 20 20" fill="none" xmlns="http://www.w3.org/2000/svg">
<path d="M10 20C15.5228 20 20 15.5228 20 10C20 4.47715 15.5228 0 10 0C4.47715 0 0 4.47715 0 10C0 15.5228 4.47715 20 10 20Z" fill="#64AFE1"/>
<path d="M9.99997 18.1669C14.5103 18.1669 18.1667 14.5106 18.1667 10.0002C18.1667 5.48986 14.5103 1.8335 9.99997 1.8335C5.48962 1.8335 1.83325 5.48986 1.83325 10.0002C1.83325 14.5106 5.48962 18.1669 9.99997 18.1669Z" fill="#4182C3"/>
<path fill-rule="evenodd" clip-rule="evenodd" d="M7.68842 13.8962L8.14551 10.2957L6.22011 10.9143L5.85254 9.77029L8.31245 8.97976L8.82368 4.95264H10.0216L9.54725 8.58301L11.5654 7.93457L11.9331 9.07856L9.37489 9.9005L9.00971 12.6946H14.1533L14.0102 13.8962H7.68842Z" fill="#EFEAEE"/>
</svg>
