<svg width="17" height="20" viewBox="0 0 17 20" fill="none" xmlns="http://www.w3.org/2000/svg">
<path d="M15.1048 5.16719C15.1391 4.88859 15.1563 4.60816 15.1564 4.32746C15.1564 1.9375 13.2189 0 10.8289 0H3.59678C3.14186 0 2.75346 0.328516 2.67799 0.777109L0.0131484 16.616C-0.0824766 17.1843 0.355649 17.7023 0.931938 17.7023H3.5769C4.03182 17.7023 4.42752 17.374 4.50295 16.9254L4.51534 16.8517H4.51538L4.14678 19.0426C4.06256 19.5435 4.4487 20 4.95662 20H7.27057C7.67155 20 8.01389 19.7104 8.08037 19.315L8.73776 15.408C8.85108 14.7345 9.43417 14.2413 10.1171 14.2413H10.725C14.0269 14.2413 16.7037 11.5646 16.7037 8.26266C16.7037 6.98496 16.0721 5.85555 15.1048 5.16719Z" fill="#002987"/>
<path d="M15.1048 5.16724C14.691 8.5336 11.8218 11.1403 8.34363 11.1403H6.32547C5.86996 11.1403 5.47656 11.4437 5.35316 11.8727L4.14684 19.0425C4.06258 19.5435 4.44871 20 4.95664 20H7.27059C7.67156 20 8.01391 19.7105 8.08039 19.3151L8.73777 15.4081C8.8511 14.7345 9.43418 14.2414 10.1171 14.2414H10.725C14.027 14.2414 16.7037 11.5646 16.7037 8.26271C16.7037 6.98501 16.0721 5.8556 15.1048 5.16724Z" fill="#0085CC"/>
<path d="M6.32537 11.1404H8.34354C11.8218 11.1404 14.6909 8.53368 15.1047 5.16735C14.4841 4.72571 13.7256 4.46509 12.9059 4.46509H7.6383C7.03857 4.46509 6.5265 4.89817 6.42697 5.48958L5.35303 11.8727C5.47643 11.4437 5.86986 11.1404 6.32537 11.1404Z" fill="#00186A"/>
</svg>
