<svg width="20" height="20" viewBox="0 0 20 20" fill="none" xmlns="http://www.w3.org/2000/svg">
<path d="M10 0C4.45455 0 0 4.45455 0 10C0 15.5455 4.45455 20 10 20C15.5455 20 20 15.5455 20 10C20 4.45455 15.5455 0 10 0ZM16.3636 10.5455L12.8182 12.5455L11.8182 12V10.4545L12.8182 11L15 9.72727V7.36364L12.8182 6.18182L10.6364 7.36364V13.4545L7.18182 15.4545L3.63636 13.4545V9.45455L7.18182 7.45455L8.18182 8V9.54545L7.18182 9L5 10.2727V12.7273L7.18182 13.9091L8.72727 13L9.36364 12.6364V6.54545L12.8182 4.54545L16.3636 6.54545V10.5455Z" fill="#8E34D5"/>
</svg>
