<svg width="24" height="26" viewBox="0 0 24 26" fill="none" xmlns="http://www.w3.org/2000/svg">
<path d="M23.6739 3.63882C23.6502 3.47477 23.5776 3.32097 23.4648 3.19633C23.3521 3.07168 23.2041 2.98162 23.0391 2.93721L12.2354 0.0310992C12.0814 -0.0103664 11.9186 -0.0103664 11.7646 0.0310992L0.960852 2.93721C0.79587 2.98159 0.647897 3.07165 0.535131 3.1963C0.422366 3.32095 0.349725 3.47476 0.326145 3.63882C0.263482 4.07464 -1.16604 14.3722 2.50059 19.495C6.1629 24.6116 11.5656 25.9228 11.7937 25.9762C11.9293 26.0079 12.0707 26.0079 12.2063 25.9762C12.4345 25.9228 17.8372 24.6116 21.4994 19.495C25.166 14.3724 23.7365 4.07476 23.6739 3.63882ZM18.967 9.65066L11.5978 16.7785C11.4263 16.9444 11.2014 17.0274 10.9767 17.0274C10.7519 17.0274 10.527 16.9445 10.3555 16.7785L5.79922 12.3714C5.71762 12.2926 5.65288 12.1989 5.60872 12.0958C5.56455 11.9927 5.54182 11.8822 5.54182 11.7707C5.54182 11.6591 5.56455 11.5486 5.60872 11.4455C5.65288 11.3424 5.71762 11.2488 5.79922 11.1699L6.7039 10.2948C6.86864 10.1355 7.09206 10.046 7.32502 10.046C7.55798 10.046 7.78141 10.1355 7.94614 10.2948L10.9767 13.2261L16.8201 7.57394C16.9016 7.49501 16.9985 7.4324 17.105 7.38968C17.2116 7.34696 17.3259 7.32497 17.4412 7.32497C17.5566 7.32497 17.6708 7.34696 17.7774 7.38968C17.884 7.4324 17.9808 7.49501 18.0623 7.57394L18.967 8.449C19.0486 8.5279 19.1133 8.62157 19.1575 8.72466C19.2016 8.82775 19.2243 8.93824 19.2243 9.04983C19.2243 9.16142 19.2016 9.27191 19.1575 9.375C19.1133 9.47809 19.0486 9.57176 18.967 9.65066Z" fill="url(#paint0_radial_1_54)"/>
<defs>
<radialGradient id="paint0_radial_1_54" cx="0" cy="0" r="1" gradientUnits="userSpaceOnUse" gradientTransform="translate(12 13) rotate(90) scale(15.5606 14.3636)">
<stop stop-color="#EF6731"/>
<stop offset="1" stop-color="#FF9F19"/>
</radialGradient>
</defs>
</svg>
