<svg width="20" height="20" viewBox="0 0 20 20" fill="none" xmlns="http://www.w3.org/2000/svg">
<path d="M10 20C15.5228 20 20 15.5228 20 10C20 4.47715 15.5228 0 10 0C4.47715 0 0 4.47715 0 10C0 15.5228 4.47715 20 10 20Z" fill="#2E79CC"/>
<path d="M12.592 11.3899C12.592 10.0219 11.776 9.54887 10.138 9.35887C8.97199 9.19887 8.73799 8.89288 8.73799 8.33987C8.73799 7.78688 9.13099 7.43988 9.90999 7.43988C10.1881 7.39635 10.4726 7.45599 10.7098 7.60756C10.947 7.75914 11.1206 7.9922 11.198 8.26287C11.2183 8.32044 11.2557 8.37042 11.3052 8.40616C11.3547 8.4419 11.414 8.46168 11.475 8.46287H12.088C12.1586 8.46316 12.2265 8.43579 12.2771 8.38663C12.3278 8.33748 12.3572 8.27044 12.359 8.19987V8.18187C12.2842 7.7588 12.0715 7.37237 11.754 7.08293C11.4365 6.79348 11.0322 6.61729 10.604 6.58187V5.60987C10.604 5.45587 10.488 5.33988 10.292 5.29688H9.67799C9.52499 5.29688 9.40799 5.41287 9.37099 5.60987V6.50987C8.87026 6.52932 8.39524 6.73667 8.04053 7.09064C7.68583 7.4446 7.47748 7.91919 7.45699 8.41987C7.45699 9.70887 8.23599 10.2199 9.87399 10.4139C10.966 10.6039 11.322 10.8439 11.322 11.4629C11.322 12.0819 10.776 12.5189 10.034 12.5189C9.01499 12.5189 8.66599 12.0889 8.54899 11.5059C8.53734 11.441 8.50339 11.3822 8.453 11.3396C8.4026 11.2971 8.33894 11.2735 8.27299 11.2729H7.63499C7.60032 11.2721 7.56583 11.2781 7.53349 11.2907C7.50116 11.3032 7.47161 11.322 7.44654 11.3459C7.42146 11.3699 7.40136 11.3986 7.38736 11.4303C7.37337 11.462 7.36577 11.4962 7.36499 11.5309V11.5799C7.43527 12.0876 7.68238 12.5543 8.06284 12.8978C8.4433 13.2413 8.93272 13.4397 9.44499 13.4579V14.3999C9.44499 14.5539 9.56099 14.6699 9.75799 14.7069H10.371C10.4516 14.7027 10.528 14.6692 10.5856 14.6126C10.6433 14.5561 10.6782 14.4804 10.684 14.3999V13.4619C11.2058 13.4154 11.6925 13.1793 12.052 12.7982C12.4116 12.4171 12.619 11.9175 12.635 11.3939L12.592 11.3899Z" fill="white"/>
<path d="M8.01105 15.4641C6.88076 15.0564 5.9037 14.31 5.21309 13.3267C4.52247 12.3435 4.1519 11.1711 4.1519 9.96957C4.1519 8.768 4.52247 7.59567 5.21309 6.6124C5.9037 5.62913 6.88076 4.88277 8.01105 4.47507C8.08536 4.44119 8.14752 4.38537 8.18918 4.31511C8.23083 4.24486 8.24998 4.16353 8.24405 4.08207V3.55407C8.24721 3.48385 8.22562 3.41475 8.18304 3.35882C8.14045 3.3029 8.07958 3.2637 8.01105 3.24807C7.95449 3.24149 7.89757 3.25688 7.85205 3.29107C6.43159 3.74326 5.1918 4.63557 4.312 5.83895C3.4322 7.04233 2.95801 8.49438 2.95801 9.98507C2.95801 11.4758 3.4322 12.9278 4.312 14.1312C5.1918 15.3346 6.43159 16.2269 7.85205 16.6791C7.90669 16.7111 7.97183 16.7202 8.03314 16.7043C8.09446 16.6883 8.14694 16.6487 8.17905 16.5941C8.1928 16.5708 8.2026 16.5455 8.20805 16.5191C8.24405 16.4831 8.24405 16.4461 8.24405 16.3661V15.8201C8.23319 15.7474 8.20675 15.678 8.16653 15.6166C8.12631 15.5551 8.07327 15.5031 8.01105 15.4641ZM12.147 3.28407C12.094 3.25205 12.0304 3.24238 11.9702 3.25719C11.91 3.272 11.8582 3.31008 11.826 3.36307C11.8119 3.38609 11.802 3.41151 11.797 3.43807C11.76 3.48107 11.76 3.51807 11.76 3.59707V4.14307C11.7667 4.2211 11.7912 4.29657 11.8316 4.36366C11.872 4.43075 11.9272 4.48768 11.993 4.53007C13.1173 4.94132 14.088 5.68805 14.7738 6.66919C15.4596 7.65033 15.8274 8.8185 15.8274 10.0156C15.8274 11.2126 15.4596 12.3808 14.7738 13.362C14.088 14.3431 13.1173 15.0898 11.993 15.5011C11.9181 15.5341 11.8553 15.5898 11.8136 15.6602C11.7718 15.7307 11.7531 15.8125 11.76 15.8941V16.4401C11.7552 16.5115 11.776 16.5822 11.8187 16.6396C11.8614 16.697 11.9233 16.7373 11.993 16.7531C12.0479 16.7583 12.1028 16.7429 12.147 16.7101C13.5685 16.2534 14.8082 15.3573 15.6877 14.1509C16.5673 12.9445 17.0411 11.49 17.0411 9.99707C17.0411 8.5041 16.5673 7.04966 15.6877 5.84326C14.8082 4.63686 13.5685 3.74077 12.147 3.28407Z" fill="white"/>
</svg>
