<svg width="19" height="18" viewBox="0 0 19 18" fill="none" xmlns="http://www.w3.org/2000/svg">
<path d="M11.3733 3.81691L12.4291 2.78603C12.5043 2.71264 12.5575 2.61963 12.5827 2.51752C12.6079 2.41542 12.604 2.3083 12.5715 2.20829C12.539 2.10828 12.4792 2.01937 12.3989 1.95163C12.3185 1.8839 12.2209 1.84004 12.1169 1.82501L10.6572 1.61264L10.0047 0.288283C9.9529 0.200465 9.8791 0.127692 9.79062 0.0771396C9.70214 0.0265869 9.60203 0 9.50017 0C9.3983 0 9.2982 0.0265869 9.20972 0.0771396C9.12124 0.127692 9.04744 0.200465 8.99561 0.288283L8.34311 1.61264L6.88342 1.82501C6.77952 1.84012 6.68192 1.88405 6.60166 1.95182C6.5214 2.01959 6.46168 2.1085 6.42926 2.2085C6.39683 2.30849 6.393 2.41558 6.41819 2.51765C6.44338 2.61971 6.49658 2.71268 6.57179 2.78603L7.6276 3.81691L7.37842 5.27308C7.36077 5.3766 7.37237 5.483 7.4119 5.58027C7.45144 5.67754 7.51734 5.7618 7.60216 5.82355C7.68698 5.88529 7.78735 5.92207 7.89194 5.92971C7.99653 5.93736 8.10116 5.91558 8.19404 5.86682L9.50017 5.17957L10.8057 5.86682C10.8986 5.91573 11.0033 5.93764 11.108 5.93007C11.2127 5.9225 11.3132 5.88575 11.3981 5.82398C11.483 5.76221 11.549 5.67788 11.5885 5.58053C11.6281 5.48317 11.6396 5.37668 11.6219 5.27308L11.3733 3.81691ZM18.4726 3.8738C18.4401 3.77392 18.3804 3.68511 18.3002 3.61742C18.22 3.54974 18.1225 3.50586 18.0187 3.49074L16.559 3.27781L15.9059 1.95345C15.8542 1.86549 15.7804 1.79258 15.6919 1.74192C15.6035 1.69127 15.5033 1.66462 15.4014 1.66462C15.2994 1.66462 15.1993 1.69127 15.1108 1.74192C15.0223 1.79258 14.9485 1.86549 14.8968 1.95345L14.2443 3.27781L12.7846 3.49018C12.6807 3.50529 12.5831 3.54922 12.5029 3.61699C12.4226 3.68476 12.3629 3.77367 12.3304 3.87367C12.298 3.97366 12.2942 4.08075 12.3194 4.18281C12.3446 4.28488 12.3978 4.37785 12.473 4.4512L13.5294 5.48207L13.2796 6.93825C13.2618 7.04189 13.2732 7.14846 13.3127 7.2459C13.3522 7.34335 13.4182 7.42777 13.5031 7.48962C13.5881 7.55147 13.6886 7.58826 13.7933 7.59585C13.8981 7.60344 14.0029 7.58151 14.0958 7.53255L15.4008 6.8453L16.7069 7.53255C16.7999 7.58151 16.9046 7.60344 17.0094 7.59585C17.1141 7.58826 17.2147 7.55147 17.2996 7.48962C17.3845 7.42777 17.4505 7.34335 17.49 7.2459C17.5295 7.14846 17.541 7.04189 17.5231 6.93825L17.2739 5.48207L18.3297 4.4512C18.405 4.3779 18.4582 4.28497 18.4835 4.18293C18.5087 4.08089 18.505 3.97381 18.4726 3.8738ZM6.21517 3.49018L4.75604 3.27781L4.10354 1.95345C4.05712 1.85911 3.98526 1.77968 3.89608 1.72413C3.80691 1.66858 3.70399 1.63914 3.59898 1.63914C3.49396 1.63914 3.39104 1.66858 3.30187 1.72413C3.2127 1.77968 3.14084 1.85911 3.09441 1.95345L2.44191 3.27781L0.981663 3.49018C0.87777 3.50529 0.780171 3.54922 0.69991 3.61699C0.619648 3.68476 0.559927 3.77367 0.527502 3.87367C0.495077 3.97366 0.491242 4.08075 0.516432 4.18281C0.541622 4.28488 0.59483 4.37785 0.670038 4.4512L1.72641 5.48207L1.47723 6.93825C1.45958 7.04177 1.47117 7.14817 1.51071 7.24544C1.55025 7.3427 1.61614 7.42697 1.70097 7.48871C1.78579 7.55046 1.88616 7.58723 1.99075 7.59488C2.09533 7.60253 2.19997 7.58074 2.29285 7.53199L3.59898 6.84474L4.90398 7.53199C4.99689 7.58105 5.10167 7.60309 5.20644 7.59559C5.31121 7.5881 5.4118 7.55138 5.4968 7.48958C5.58181 7.42779 5.64783 7.34339 5.68741 7.24595C5.72699 7.14851 5.73853 7.04192 5.72073 6.93825L5.47154 5.48207L6.52792 4.4512C6.60297 4.37779 6.65603 4.28482 6.68109 4.18279C6.70616 4.08077 6.70223 3.97376 6.66976 3.87385C6.63728 3.77394 6.57756 3.68512 6.49732 3.61742C6.41709 3.54973 6.31955 3.50585 6.21573 3.49074L6.21517 3.49018ZM15.1252 8.42372H3.87517C3.42775 8.42417 2.99879 8.60236 2.68242 8.91919C2.36604 9.23602 2.18811 9.66561 2.18766 10.1137V14.6202C2.18811 15.0683 2.36604 15.4979 2.68242 15.8147C2.99879 16.1315 3.42775 16.3097 3.87517 16.3102H7.57979L9.10248 17.8351C9.20797 17.9407 9.35101 18 9.50017 18C9.64932 18 9.79237 17.9407 9.89786 17.8351L11.4205 16.3102H15.1252C15.5726 16.3097 16.0016 16.1315 16.3179 15.8147C16.6343 15.4979 16.8122 15.0683 16.8127 14.6202V10.1137C16.8122 9.66561 16.6343 9.23602 16.3179 8.91919C16.0016 8.60236 15.5726 8.42417 15.1252 8.42372ZM14.0002 14.0569H5.00017C4.85098 14.0569 4.70791 13.9975 4.60242 13.8919C4.49693 13.7863 4.43767 13.643 4.43767 13.4936C4.43767 13.3442 4.49693 13.2009 4.60242 13.0953C4.70791 12.9896 4.85098 12.9303 5.00017 12.9303H14.0002C14.1494 12.9303 14.2924 12.9896 14.3979 13.0953C14.5034 13.2009 14.5627 13.3442 14.5627 13.4936C14.5627 13.643 14.5034 13.7863 14.3979 13.8919C14.2924 13.9975 14.1494 14.0569 14.0002 14.0569ZM14.0002 11.8036H5.00017C4.85098 11.8036 4.70791 11.7443 4.60242 11.6386C4.49693 11.533 4.43767 11.3897 4.43767 11.2403C4.43767 11.0909 4.49693 10.9476 4.60242 10.842C4.70791 10.7363 4.85098 10.677 5.00017 10.677H14.0002C14.1494 10.677 14.2924 10.7363 14.3979 10.842C14.5034 10.9476 14.5627 11.0909 14.5627 11.2403C14.5627 11.3897 14.5034 11.533 14.3979 11.6386C14.2924 11.7443 14.1494 11.8036 14.0002 11.8036Z" fill="white"/>
</svg>
